<?xml version="1.0" encoding="UTF-8"?>
<svg id="Layer_1" data-name="Layer 1" xmlns="http://www.w3.org/2000/svg" viewBox="0 0 649.73 628.6">
  <defs>
    <style>
      .cls-1 {
        fill: #20211e;
      }
    </style>
  </defs>
  <path class="cls-1" d="M647.56,286.69c-.4-3.93-.94-8.02-1.61-12.24-1.17-7.37-1.83-11.43-1.97-12.18-.84-4.53-2.4-11.42-4.66-20.69-3.33-13.64-8.07-27.32-13.42-40.86-2.53-6.39-5.27-12.5-8.23-18.32-4-7.86-8.16-15.69-13-23.48-3.36-5.39-5.34-8.54-5.94-9.43-2.71-4.04-5.7-8.28-8.98-12.71-2.49-3.37-5.83-8.12-9.06-11.99l-10.61-12.77c-.83-1-2.24-1.28-3.37-.67l-.07.04c-.1.05-.19.11-.28.18-.8.64-.92,1.8-.29,2.59,7.03,8.76,11.54,14.67,13.54,17.74,2.29,3.52,3.57,5.49,3.83,5.9,3.57,5.5,4.67,7.61,8.62,14.59,5.46,9.67,10.48,20.27,15.06,31.79,2.84,7.16,5.39,14.76,7.62,22.79,1.93,6.93,3.69,13.94,5.29,21.01,1.53,8.4,2.9,16.86,4.11,25.37.6,4.26.99,7.96,1.16,11.12.19,3.46.42,7.18.69,11.17.6,8.97.2,18.47-.62,30.17-.38,5.44-.9,10.33-1.55,14.7-1.99,13.27-4.1,24.28-6.33,33.03-2.25,8.81-4.87,18.1-8.77,27.79-4.42,11.8-9.56,23.27-15.63,34.31-5.31,9.66-10.1,18.11-16.16,26.73-1.43,2.02-3.59,4.99-6.51,8.89-.4.53-1.24,1.63-2.53,3.3-1.97,2.54-4.05,5.19-6.25,7.93-2.91,3.63-4.69,5.38-8.2,9.32-.45.5-.8.66-1.06.49-.05-.03-.4-.22-1.06-.56-4.25-2.22-8.29-4.72-12.57-6.67-3.24-1.47-8.93-4.39-13.44-6.29-7.78-3.29-16.47-6.72-26.09-10.29-2.45-.91-6.22-2.02-9.8-3.06-.53-.15-5.18-1.4-13.95-3.75-10.81-2.9-22.45-5.46-34.9-7.69-2.64-.48-6.95-1.03-12.95-1.67.71-1.36,1.59-2.64,2.64-3.82,3.09-3.48,6.4-6.75,9.92-9.81,1.42-1.35,2.92-2.6,4.49-3.75,7.13-5.23,14.71-9.71,22.73-13.44,7.43-3.33,14.59-5.75,21.48-7.27,18.39-4.05,37.78-7.67,54.78-14.1,6.05-2.3,10.87-4.41,14.45-6.34,2.3-1.24,5.9-3.5,10.79-6.78,3.2-2.15,6.62-4.98,10.24-8.49,10.27-10.17,18.86-25.21,14.18-40.11-.1-.3-.21-.59-.34-.86-.02-.05-.06-.1-.1-.13-.17-.14-.42-.11-.56.06-1.14,1.39-3.93,4.82-8.38,10.3-4.02,4.96-8.95,9.98-14.77,15.07-5.87,5.13-11.46,9.4-16.78,12.81-6.95,4.46-14.35,8.08-22.22,10.86l-3.06,1.18c-3.55,1.16-7.13,2.29-10.74,3.39-3.92,1.2-7.92,1.91-11.49,2.54-5.39.96-14.27,2.46-26.65,4.51-8.84,1.46-16.81,2.93-26.11,6.18-10.8,3.36-20.74,8.41-29.82,15.16-1.32.94-2.17,1.57-2.56,1.89-6.6,5.4-12.39,11.56-17.39,18.47-2.26,3.12-4.39,6.32-6.41,9.59-4.38,7.84-7.44,16.14-9.18,24.89-.06.28-.3.48-.58.48l-4.03.05c-.63.1-1.37.05-2.21-.15v-.04c.76-5.07,2.06-9.98,3.88-14.75,1.98-5.19,4.36-10.22,7.14-15.07,2.66-4.98,5.28-8.9,7.85-11.78,2.33-2.61,4.62-5.26,6.87-7.95,3.16-3.78,5.31-8.34,7.49-13.05,1.02-2.12,1.95-4.3,2.81-6.54,3.02-7.89,5.35-15.97,6.99-24.25,1.35-7.31,2.13-13.06,2.37-17.24.57-10.44.98-21.06,1.22-31.87.29-12.67,1.96-26.35,5.44-38.1,1.69-5.71,3.91-11.3,6.64-16.77.84-1.69,2.26-4.06,4.25-7.12.59-.91.86-1.76.82-2.55-3.12-.46-6.15-.41-9.09.14-5.12,1.33-9.45,3.78-12.99,7.35-2.43,2.44-4.67,5.65-6.72,9.64-.54,1.05-1.5,3.16-2.88,6.34-.36.84-1.23,3.54-2.61,8.08-.58,1.91-1.15,4.35-1.73,7.34-1.05,5.45-1.91,9.26-2.14,14.48-.39,8.81-.71,17.6-.96,26.39-.43,7.21-.85,12.92-1.26,17.13-.61,6.25-1.9,12.61-3.87,19.1,0,0,0,0,0,0-1.77,5.87-3.74,10.77-5.9,14.67-2.49,4.51-4.22,7.52-5.18,9.05-2.95,4.65-6.03,8.74-9.25,12.27-3.9,4.29-8.41,8.35-13.53,12.17-.06.04-.12.09-.18.13h0c-2.72,2.03-4.51,3.38-5.38,4.03-3.2,2.42-6.48,4.38-9.24,6.28-.03.02-.07.03-.11.02-.08-.02-.12-.09-.1-.16,1.33-5.13,2.33-10.06,2.99-14.77,1.1-7.83,1.05-15.89-.16-24.16-.92-6.35-2.12-12.35-3.96-18.27l-.04-.13c-.41-1.32-.86-2.64-1.34-3.96,0,.02,0,.04,0,.05,0-.02,0-.04,0-.05-1.89-5.13-3.89-10.23-6.02-15.32-1.84-4.4-3.2-7.82-4.09-10.26-3.16-8.63-5.86-18.14-6.27-26.67-.51-10.54,1.94-21.04,6.39-30.62,2.53-5.45,6.88-11.4,10.3-15.75,5.85-7.43,12.36-14.31,18.61-21.41l2.89-3.45c3.08-3.9,5.54-7.29,7.38-10.17,2.77-4.34,5.12-9.34,7.05-15.02,1.91-5.62,2.35-10.59,2.13-16.1-.11-2.82-.81-5.75-2.09-8.78-1.94-4.62-5.12-8.11-9.55-10.45-.05-.03-.1-.04-.15-.05-.22-.02-.42.14-.45.36-.35,3.04-.7,6.08-1.06,9.11-.2,1.69-.62,3.82-1.26,6.38-2.69,9.65-6.75,18.7-12.19,27.15-.67,1.04-2.24,3.32-4.71,6.83-2.6,3.49-4.4,5.85-5.42,7.07-4.94,5.95-9.84,11.88-14.69,17.81-3.94,4.77-6.89,8.91-8.85,12.44-2.72,4.89-4.9,9.29-6.54,13.19-1.88,4.48-3.3,10.15-4.27,17.03-.65,4.67-.92,9.52-.8,14.56.09,3.79.67,7.5,1.75,11.1,1.19,3.99,3.15,9.2,4.51,13.62,3.33,10.82,6.03,21.77,8.11,32.86t0,0c2.44,14.75,3.55,29.55,3.31,44.39-.3,8.44-1.26,16.78-2.88,25.02-1.31,6.66-2.84,13.3-4.6,19.93l-6.76.31c1.76-7.7,3.96-15.96,5.17-23.01.99-5.69,1.61-11.43,1.87-17.22.56-12.68-1.09-24.19-5.98-35.8-1.88-4.68-4.14-9.19-6.76-13.53-1.35-2.23-3-4.6-4.95-7.12-2.37-3.05-4.19-5.28-5.47-6.7-8.87-9.8-18.67-17.3-30.97-25.97-2.58-1.82-3.99-2.82-4.24-3-3.59-2.62-6.53-4.42-10.64-7.41-7.31-5.32-13.3-9.49-19.07-14.39-5.68-4.81-11.71-10.63-18.1-17.44-7.96-8.5-14.41-18.17-20.13-28.49-2.15-3.87-4.19-8.26-6.13-13.18-3.45-8.75-5.95-16.88-8.47-26.17,0-.03-.02-.05-.04-.08-.08-.12-.24-.15-.35-.07-2.8,1.89-5.04,4.29-6.71,7.21-2.7,4.7-4.05,9.85-4.07,15.43,0,3.07.04,5.11.14,6.12.65,6.49,2.45,13.96,5.38,20.83,1.63,3.81,3.15,7.03,4.57,9.66.99,1.82,2.38,4,4.18,6.52.54.74,1.11,1.51,1.71,2.3,3.33,4.37,6.81,8.28,10.44,11.72,2,1.89,4.97,4.52,8.92,7.91,2.23,1.91,5.37,4.29,9.44,7.15,8.58,6.04,16.4,11.35,23.44,15.94,2.45,1.59,4.77,3.18,6.96,4.75,6.19,4.44,9.58,6.68,14.54,10.85,3.34,2.81,5.76,4.94,7.26,6.38,2.29,2.21,4.96,5.06,8.02,8.53,4.42,5.02,8.3,10.43,11.64,16.23,4.07,6.61,7.27,14.27,8.57,21.93.57,3.38,1.28,6.46,1.31,9.65.05,6.08-.32,11.47-2,16.69-.04.13-.17.22-.31.22-8.08-.33-12.65-4.73-18.2-10.28-3.81-3.82-8.38-7.82-11.52-10.33-2.76-2.21-7.41-5.65-13.94-10.34-4.5-3.23-8.91-7.13-13.22-11.69-1.91-2.02-4.47-5.21-5.67-7.2-3.51-5.83-6.6-11.6-9.27-17.31-1.24-2.65-2.13-4.44-2.66-5.38-2.22-3.87-3.96-7-7.29-9.48-3.6-2.68-6.77-4.33-11.21-5-.02,0-.04,0-.06,0-.19,0-.35.17-.34.36.22,8.24,1.72,15.88,3.86,23.86,4.24,15.81,13.05,29.92,25.09,40.88,1.97,1.8,3.39,2.94,4.27,3.43,9.3,5.25,18.39,10.82,25.55,18.89,2.73,3.08,4.87,5.82,6.41,8.21,5.2,8.05,7.98,17.2,8.34,27.45l-6.51.58c-.24-2.75-.51-4.99-.82-6.71-1.92-10.92-6.92-20.13-15.02-27.63-4.74-4.39-9.59-7.99-14.54-10.81-5.74-3.26-12.56-6.44-20.46-9.54-4.62-1.81-8.92-3.4-12.89-4.78-10.19-3.52-19.51-7.49-28.43-12.33-3.05-1.66-5.74-3.3-8.08-4.94-3.67-2.56-6.23-4.41-7.69-5.53-9.45-7.29-18.33-17.37-24.82-27.33-8.41-12.92-14.73-26.47-18.97-40.66-1.33-4.46-2.16-8.75-3.09-13.27,0-.03-.02-.06-.04-.09-.08-.12-.24-.15-.36-.07-6.11,4.18-9.24,10.07-11.04,17.42-.98,4-1.07,8.17-.29,12.5.59,3.25,1.4,7.37,2.6,10.63.68,1.84,1.37,3.52,2.06,5.04,3,6.63,6.57,13.14,10.73,19.54,2.51,3.87,5.42,7.14,7.92,10.37,1.79,2.31,3.92,4.75,6.39,7.29,4.8,4.95,9.95,9.53,15.43,13.74,6.27,4.82,9.07,7.17,14.56,10.69,7.82,5.01,16.07,9.67,24.76,13.99,4.85,2.42,9.84,4.45,14.58,6.95.12.06,3.99,1.89,11.62,5.48.85.4,2.94,1.31,6.29,2.74,1.57.67,3.69,1.67,6.38,3.01.03.02.07.03.11.04l1.76.49s.05.02.07.03c.1.07.12.22.05.32-.17.22-.44.34-.81.36-4.66.73-9.7,1.13-13.97,1.87-16.9,2.94-32.62,6.72-47.17,11.33-.33.11-.9.3-1.7.59-7.24,2.58-12.48,4.53-15.71,5.85-2.36.96-7.25,2.97-14.66,6.02-1.2.49-2.6,1.38-3.93,1.95-4.21,1.78-7.99,3.65-11.34,5.6-1.24.72-2.44,1.18-3.81,1.92-.16.09-.36.05-.49-.09-3.81-4.35-7.9-9.31-12.26-14.88-3.08-3.93-4.73-6.67-8.24-11.79-3.85-5.64-7.81-12.06-11.89-19.26-3.76-6.63-8.04-15.42-12.84-26.39-.05-.13-1.5-3.85-4.34-11.16-1.68-4.33-2.99-8.1-3.93-11.31-2.62-8.98-4.47-15.81-5.55-20.49-2.5-10.88-3.8-20.6-5.26-32.43-1.39-11.31-1.79-22.6-1.21-33.86.67-12.76,2.09-25.22,4.28-37.39,1.06-5.91,2.4-12.6,4.17-19.12,1.16-4.28,2.34-8.57,3.52-12.87,5.04-16.02,11.34-31.55,18.9-46.59,2.27-4.52,4.88-8.99,7.18-13.35.74-1.4,1.77-3.14,3.09-5.21,5.02-7.86,8.31-12.9,9.87-15.14,4.22-6.08,9.24-12.77,15.06-20.09,3.81-4.79,8.65-10.33,14.51-16.61,1.73-1.86,3.58-3.72,5.55-5.61,2.08-1.98,3.98-3.8,5.71-5.45,1.56-1.49,3.26-3.1,5.09-4.84,1.26-1.2,3.47-3.04,6.63-5.53,8.06-6.66,15.4-12.28,22.03-16.86.99-.69,4.58-3.05,10.77-7.1,4.07-2.66,7.74-4.9,11.01-6.72,4.56-2.53,10.4-5.6,17.53-9.18,6.3-3.17,12.27-5.92,17.93-8.24,5.35-2.2,12.48-4.83,21.38-7.89,8.68-2.76,16.73-5,24.16-6.72,3.42-.79,9.44-2.06,18.07-3.79,9.2-1.85,20.75-3.26,34.64-4.23,2.75-.19,8.31-.44,16.68-.75,5.23-.19,10.8-.14,16.71.16,7.91.4,14.14.8,18.69,1.21,2.19.2,7.64.91,16.35,2.13,16.85,2.37,33.12,6.47,49.58,11.76,2.94.94,6.45,2.24,10.54,3.87,4.42,1.77,7.87,3.17,10.33,4.21.06.02.11.04.17.06,1.04.33,2.15-.25,2.48-1.29l.02-.08c.36-1.14-.19-2.37-1.29-2.84l-8.07-3.52c-7.71-3.09-15.46-6.02-23.27-8.79-5.02-1.78-9.64-3.25-13.86-4.4-5.74-1.57-10.43-2.79-14.09-3.66-13.38-3.2-27.36-5.62-41.95-7.25-9.26-1.03-19.5-1.59-30.73-1.69-12.83-.11-25.07.41-36.72,1.55-4.29.42-9.86,1.16-16.71,2.22-6.82,1.06-12.35,2.02-16.61,2.89-4.65.96-7.01,1.44-7.06,1.45-2.53.51-4.87,1.05-7.02,1.61-6.53,1.7-12.51,3.31-17.94,4.84-2.94.83-5.23,1.81-7.96,2.65-1.23.37-3.22,1.06-5.96,2.05-5.42,1.95-11.82,4.45-19.2,7.5-2.91,1.2-5.51,2.37-7.81,3.49-4.53,2.22-8.96,4.07-12.99,6.32-2.68,1.5-4.4,2.44-5.19,2.82-2.01.97-4.33,2.25-6.96,3.85-.77.46-3.05,1.82-6.87,4.06-2.7,1.58-8.6,5.42-17.69,11.51-3.49,2.34-5.83,4.44-8.81,6.49-1.54,1.06-3.69,2.75-6.45,5.05-2.09,1.75-5.28,4.37-9.56,7.86-2.42,1.97-7.86,7.06-16.31,15.26-3.12,3.03-6.67,6.69-10.65,10.98-2.68,2.89-4.73,5.61-7.89,9.34-2.35,2.78-5.06,6.29-8.13,10.53-.48.66-1.32,1.57-1.72,2.09-.82,1.07-3.77,5.32-8.85,12.74-1.66,2.43-2.94,4.95-4.62,7.5-2.13,3.25-4.12,6.93-6.13,10.14-.76,1.21-1.61,2.74-2.55,4.56-4.64,8.94-8.88,17.83-12.72,26.69-.5,1.16-1.17,2.85-2,5.06-1.6,4.24-3.45,8.75-4.72,12.75-2.86,8.98-4.82,15.57-5.88,19.79-1.89,7.52-3.42,14.63-4.61,21.33-.38,2.12-.98,6.59-1.8,13.39-.74,6.11-1.2,11.22-1.38,15.31-.84,19.07-.65,38.56,2.31,57.24,3.63,22.97,9.61,44.86,18.95,65.39,3.47,7.64,7.63,15.82,12.47,24.55,1.91,3.46,3.98,6.54,6.21,10.28,1.43,2.4,3.03,4.36,4.36,6.48.76,1.21,1.84,2.77,3.26,4.68,6.87,9.25,13.56,17.42,20.09,24.52,6.66,7.26,14.3,14.63,22.92,22.13,1.68,1.46,3.72,2.91,5.53,4.58,1.06.97,2.45,2.1,4.17,3.4,4.29,3.23,9.28,6.82,14.97,10.77,2.01,1.4,3.36,2.28,4.02,2.65,1.71.95,3.08,1.8,4.11,2.53,3.51,2.51,8.52,5,12.63,7.55,3.72,2.31,6.71,3.56,11.16,5.83,4.8,2.45,9.75,4.47,15.3,7.06,3.46,1.61,7.8,3.17,11.68,4.73,1.46.55,2.92,1.09,4.38,1.61,6.49,2.33,13.03,4.69,19.63,7.09,2.03.74,4.74,1.49,8.13,2.26.11.02.22.04.33.04,1,.04,1.84-.73,1.88-1.73v-.09c.06-1.28-.73-2.45-1.94-2.89-8.35-3-15.39-5.86-21.11-8.58-3-1.42-4.73-2.23-5.2-2.43-1.8-.76-3.39-1.5-4.79-2.24-2.06-1.09-4.2-1.98-6.29-3.19-2.87-1.65-5.58-3.15-8.15-4.52-4.03-2.15-9.39-5.65-12.65-7.64-2.61-1.59-4.72-3.25-7.86-5.27-1.39-.9-3.01-2.03-4.85-3.41-2.19-1.64-4.21-2.97-6.35-4.73-2.63-2.16-4.81-3.91-6.56-5.27-3.53-2.74-5.5-4.58-9.81-8.32-.04-.04-.07-.08-.09-.14-.06-.17.02-.36.19-.42.3-.11.65-.23,1.04-.38,4.39-1.58,8.92-3.03,13.61-4.38,5.17-1.48,9.53-2.79,13.54-3.75,13.04-3.12,20.7-4.92,22.98-5.42,6.44-1.4,14.5-2.85,24.19-4.35,14.41-2.22,30.84-4.78,46.08-6.16,16.32-1.47,30.32-2.62,42-3.44,13.16-.92,28.11-1.61,44.83-2.06,7.98-.21,21.35-.23,40.12-.05,6.57.06,13.83.32,21.8.77,13.05.74,20.31,1.16,21.77,1.27,4.14.3,14.15,1.25,30.04,2.86,6.4.65,15.58,2.04,27.55,4.16,11.47,2.04,20.78,3.71,29.34,5.91,8.76,2.25,15.41,4.04,19.97,5.37,2.94.85,5.58,1.76,7.93,2.72.02,0,.05.02.06.04.08.08.08.2,0,.28-1.72,1.79-3.6,3.56-5.63,5.33-.26.23-.69.73-1.29,1.51-.04.06-.09.11-.14.15l-10.27,8.66c-.33.28-.78.34-1.18.17-11.11-4.81-22.6-9.11-34.45-12.87-3.97-1.27-7.59-2.37-10.84-3.3-3.63-1.05-6.36-1.76-8.17-2.13-3.94-.81-6.94-1.65-11.03-2.4-12.63-2.31-22.18-3.79-28.68-4.44-6.95-.7-16.28-1.26-27.98-1.66-27.98-.98-55.67,1.21-83.05,6.56-3.2.62-5.35,1.07-6.45,1.33-3.17.75-5.86,1.11-8.59,1.82-11.92,3.07-19.31,5.05-22.17,5.95-7.35,2.31-17.59,6.05-30.74,11.21-2.75,1.08-5.75,2.43-8.98,4.04-5.08,2.53-11.89,5.73-18.83,9.6,0,0-.01.01-.01.02,0,.05.01.09.03.11.02.03.05.04.09.03,12.98-5.32,25.19-9.93,36.63-13.83,4.48-1.52,13.61-4.11,27.38-7.77,8.68-2.31,18.59-4.51,29.71-6.62,10.63-2.02,20.66-3.54,30.1-4.57,28.67-3.13,57.3-3.43,85.62-.1,15.51,1.83,31.11,4.39,46.53,8.14,8.84,2.15,15.33,3.85,19.46,5.08,6.93,2.07,13.82,4.1,20.57,6.29.82.26,1.69.59,2.63.98.02,0,.04.02.06.04.06.07.06.17-.01.24-3.31,2.84-6.98,5.35-10.17,8.06-1.74,1.47-4.01,2.76-5.91,4.28-4.32,3.44-9.07,6.19-14.05,9.5-1.37.91-3.41,2.14-6.12,3.67-2.2,1.26-4.51,3.06-6.73,4.25-4.03,2.16-8.26,4.73-12.2,6.73-3.74,1.9-5.9,3.01-6.5,3.34-4.72,2.61-10.01,4.9-14.06,6.91-4.93,2.44-11.16,4.73-16.91,7.24-3.37,1.47-9.41,3.77-18.12,6.9-15.54,5.29-31.36,9.55-47.46,12.77-6.85,1.37-13.76,2.44-20.72,3.19-6.65.72-15.27,1.59-22.95,1.99-17.93.94-35.89-.31-53.68-2.44-8.92-1.07-16.7-2.74-26.45-4.78-9.36-1.96-18.46-4.43-27.28-7.41-3.31-1.12-5.46-1.84-6.45-2.17-6.7-2.24-13.34-4.79-19.94-7.64-7.16-3.1-15.21-6.65-23.44-11-9.89-5.23-19.4-10.82-28.55-16.76-5.29-3.44-10.78-7.39-16.47-11.85-5.84-4.58-11.1-8.85-15.76-12.82-.55-.47-4.09-3.74-10.62-9.8-4.77-4.42-7.28-7.21-12.81-12.95-1.95-2.03-3.64-3.88-5.06-5.56-2.19-2.59-3.8-4.49-4.83-5.69-2.05-2.39-3.48-4.51-5.38-6.66-1.15-1.3-2.48-2.98-3.99-5.05-4.4-6-7.66-10.52-9.78-13.58-2.6-3.75-5.33-8.15-8.19-13.21-2.62-4.63-5.22-8.81-7.47-13.41-3.7-7.57-5.8-11.95-6.3-13.16-1.5-3.56-4.04-8.41-5.61-12.8-2.22-6.21-4.31-12.44-6.28-18.67-4.04-12.73-6.89-25.55-8.56-38.47-.8-6.2-1.47-12.31-2-18.3-.71-8.03-.34-17.38-.13-23.89.03-1.01-.16-1.84-.57-2.47-.98-1.49-4.18-.53-4.21,1.29-.09,4.16-.49,7.53-.59,11.45-.31,11.73-.23,22.41.25,32.04.43,8.64,1.38,18.32,2.86,29.05.83,6.02,2.09,12.83,3.79,20.45,3.12,13.95,6.78,26.48,10.99,37.59,3.63,9.58,5.78,15.17,9.8,23.93,2.68,5.84,5.67,11.31,8.79,17.53.71,1.42,1.24,2.39,1.56,2.91,1.5,2.33,2.89,5.09,4.18,7.13,4.18,6.57,6.47,10.17,6.87,10.77,10.28,15.62,21.71,30.48,35.53,44.53,5.83,5.93,9.47,9.57,10.91,10.9,6.18,5.73,10.29,9.41,12.33,11.03,2.62,2.09,4.5,3.62,5.64,4.61,3.3,2.83,6.54,5.02,10.53,8.08,3.52,2.7,7.1,5.24,10.76,7.62,2.23,1.45,4.99,3.28,8.28,5.47,7.16,4.77,13.17,7.99,21.79,12.66,2.69,1.46,4.74,2.51,6.14,3.14,2.05.92,4.09,1.97,6.14,3.14,2.3,1.32,7.33,3.32,12.31,5.58,1.07.48,1.93.87,2.57,1.16,1.47.66,7.27,2.93,17.4,6.8,4.06,1.55,8.47,2.86,12.25,4.08.29.1,2.73.87,7.3,2.31,6.15,1.95,13.81,3.55,18.45,4.78,3.46.92,7.17,1.74,11.13,2.45,13.51,2.45,24.84,4.14,33.98,5.07,15.86,1.63,33.14,2.01,51.84,1.13,4.4-.2,8.29-.48,11.69-.83,10.08-1.02,13.81-1.58,25.75-3.34,4.6-.68,8.28-1.32,11.03-1.91,5.32-1.15,8.96-2,10.89-2.55,4.88-1.37,9.08-2.45,12.57-3.24,2.22-.5,4.21-1.2,6.3-1.79,2.53-.72,8.92-2.86,19.18-6.43,3.66-1.27,7-2.85,10.31-4.05,3.23-1.18,5.78-2.23,7.66-3.16,4.5-2.22,8.65-3.61,13.33-6.05,1.72-.89,5.06-2.55,10.01-4.96,1.3-.63,2.54-1.3,3.72-2.01,3.05-1.83,6.3-3.33,9.23-5.12,6.05-3.68,9.93-6.06,11.62-7.13,3.32-2.09,8.78-5.86,16.37-11.33,2.9-2.09,5.72-4.4,8.6-6.38,2-1.36,5.56-4.31,10.67-8.82.91-.8,2.58-2.28,5.01-4.43,9.75-8.65,18.59-17.5,26.52-26.55,1.24-1.42,3.64-4.26,7.2-8.51,2.2-2.63,4.48-5.57,6.83-8.81,4.28-5.9,6.74-9.3,7.4-10.2,2.67-3.64,5.03-7.11,7.07-10.43,4.38-7.11,7.4-12.18,9.05-15.23.09-.16.9-1.68,2.43-4.56,4.46-8.38,8.15-16.06,11.08-23.05,2.09-4.98,4.66-11.73,7.71-20.24,1.64-4.58,3.05-9.1,4.22-13.56,1.67-6.37,2.85-10.96,3.52-13.77,5.37-22.57,8.09-45.56,8.16-68.97.04-11.54-.88-21.44-2.17-34.04Z"/>
  <ellipse class="cls-1" cx="489.35" cy="81.58" rx="23.27" ry="23.15" transform="translate(10.67 211.91) rotate(-24.7)"/>
  <path class="cls-1" d="M455.39,135.86c4.08-4.68,5.21-9.87,3.39-15.58-.5-1.57-1.36-3.1-2.56-4.61-4.01-5-10.63-6.42-16.66-4.53-14.77,5.39-12.98,25.84,2.27,28.81,4.32.84,10.24-.49,13.57-4.1Z"/>
  <path class="cls-1" d="M469.89,170.52c3.84,2.41,9.67,2.91,13.77.44,4-2.42,6.85-6.07,7.21-10.79.8-8.88-5.42-15.96-14.4-15.65-4.7.22-8.2,2.56-10.9,6.29-2.73,3.75-3.14,9.31-1.29,13.36,1.21,2.65,3.08,4.77,5.61,6.36Z"/>
  <path class="cls-1" d="M329.38,247.51c1.22-1.7,2.89-3.78,5.02-6.25,5.34-6.19,10.7-12.74,16.07-19.64.33-.43.82-1.18,1.48-2.25,6.17-9.04,11.05-18.46,13.55-29.01.62-3.37,1.14-6.79,1.53-10.25.19-1.69.23-3.37.12-5.06-.02-.33-.31-.59-.64-.57-5.24.18-10.63,1.48-14.99,4.43-8.64,5.84-14.77,14.86-20.02,23.74-2.79,4.52-5.55,9.06-8.27,13.64-3.16,5.32-6.89,11.09-11.98,14.75-.92.67-1.6.99-2.04.99-1.76-.02-2.72-3.44-3.02-4.89-1.08-5.25-1.18-10.71-.28-16.38,1.6-10.05,4.07-20.15,6.41-30.19,2.6-8.7,4.63-18.13,6.11-28.29,1.24-8.56.63-16.67-1.83-24.34-2.52-7.83-7.6-14.57-15.87-16.92-.43-.12-.88.1-1.04.52-3.7,9.24-6.94,19.13-9.72,29.67-.53,1.99-1.07,3.96-1.64,5.91l-1.8,7.8c-3.71,17.65-4.88,37.1-3.03,55.23.91,8.9,2.22,17.1,3.94,24.59,3.48,15.21,8.35,29.82,13.62,44.3,2.12,5.84,4.65,11.78,6.7,17.38,0,0,.01.01.02.02l.11.12s.07.05.11.06c.1.01.2-.06.21-.16.22-1.75.55-4.1.98-7.03.66-4.53,2.52-10.21,3.8-13.83,2.43-6.89,6.02-12.98,10.12-19.4,1.95-3.04,4.47-6.18,6.27-8.68Z"/>
  <ellipse class="cls-1" cx="441.59" cy="181.95" rx="10.02" ry="9.65" transform="translate(-5.49 13.95) rotate(-1.8)"/>
  <path class="cls-1" d="M275.58,298.99c-.4-.17-2.27-1-5.61-2.48-5.38-2.39-9.98-5.46-14.94-9.09-3.07-2.25-5.89-4.77-8.45-7.58-3.14-3.44-5.71-6.52-7.71-9.24-2.83-3.84-6.13-9.2-8.29-14.37-1.49-3.57-2.98-6.69-4.37-10.54-1.62-4.48-3.63-9.33-6.03-14.55-1.89-4.11-4.14-7.62-6.76-10.54-2.72-3.03-5.45-4.83-9.45-6.46-4.5-1.84-9.07-2.14-13.7-.91h0c-.09.02-.14.11-.11.2,1.98,7.29,4.11,15.44,6.74,22.22,3.18,8.2,6.41,15.1,9.7,20.71,6.02,10.28,13.68,20.21,22.98,29.79,1.83,1.89,4.32,4.2,7.48,6.94,3.83,3.33,6.44,5.52,7.83,6.59,7.66,5.87,14.17,10.52,22.96,16.55,6.94,4.77,12.95,9.09,18.03,12.96,1.95,1.5,3.54,2.79,4.77,3.87,3.59,3.19,7.31,6.05,10.84,9.68,4.28,4.4,7.2,7.61,8.75,9.65,3.34,4.37,6.22,8.42,8.63,12.14,1.31,2.02,2.37,3.97,3.18,5.85.02.04.04.07.07.1.11.09.27.07.35-.04,0-.01.03-.06.07-.14.03-.07.05-.15.03-.23-1.24-8.02-2.48-14.46-3.74-19.31-1.75-6.75-3.31-12.15-4.69-16.22-2.2-6.46-4.01-12.3-5.94-17.52-6.24-16.89-9.96-26.87-11.16-29.93-10.05-25.66-18.23-52.43-20.58-79.98-.18-3.36-.32-6.74-.41-10.12-.35-12.69.61-25.04,2.87-37.05l1.07-5.74c.93-5.17,2.32-10.99,4.16-17.44,2.22-7.79,4.43-14.6,6.61-20.42.74-1.96,1.3-4.1,1.72-5.65,0-.02,0-.05,0-.07,0-.14-.12-.25-.26-.25-5.17.15-9.75,1.8-13.74,4.96-2.14,1.69-3.79,3.23-4.95,4.61-3.53,4.18-6.49,8.88-8.86,14.09-1.06,2.32-2.24,5.33-3.55,9.02-1.71,4.8-2.83,9.99-3.65,15.01-.83,5.1-1.53,10.23-2.1,15.37-1.07,9.61-1.43,19.26-1.07,28.94l.19,5.82c.54,8.2,1.12,14.27,1.76,18.2.53,3.23,1.33,8.06,2.39,14.49.45,2.71.95,5.27,1.51,7.7.86,3.75,1.5,6.29,1.92,7.61,2.25,7.15,4.63,14.46,7.15,21.95,2,5.95,4.45,14.2,6.78,20.44.03.08.03.17,0,.25-.07.16-.26.23-.42.16Z"/>
  <path class="cls-1" d="M505.18,245.28c-3.29,4.37-6.43,9.62-9.44,15.74-1.14,2.32-2.17,5.28-3.37,7.76-2.5,5.17-4.36,10.84-6.65,15.99-1.8,4.05-3.43,7.96-4.87,11.72-1.28,3.33-2.8,6.19-4.49,9.78-.87,1.85-2.18,4.15-3.95,6.92-3.48,5.73-7.07,10.7-10.8,14.91-2.86,3.23-6.53,6.18-11.03,8.85-.02.01-.05.02-.07.01-.06-.01-.09-.07-.08-.13.55-1.97,1.03-3.58,1.47-4.83,3.27-9.46,5.97-18.07,8.11-25.83,1.04-3.78,1.89-7.86,2.54-12.23,1.08-6.4,1.29-12.97.62-19.71-.55-5.51-2.16-10.56-4.83-15.17-1.8-3.41-4.31-6.1-7.54-8.08-.14-.09-.32-.06-.42.07-1.81,2.11-3.37,4.42-4.67,6.93-2.73,5.24-5,10.66-6.82,16.24-.43,1.09-.72,1.9-.86,2.43-1.89,7.13-3.16,14.31-3.8,21.53-.34,3.86-.68,9.03-1.01,15.5-.23,4.42-.44,9.59-.63,15.51-.18,5.47-.43,10.94-.74,16.4-1.23,14.18-4.31,27.91-9.24,41.21-.55,1.48-1.12,2.83-1.7,4.04-.03.06-.02.14.02.19.06.08.18.09.26.03l20.1-15.72c2.24-1.83,6.76-5.42,13.54-10.77,4.98-3.92,10.22-8.57,15.72-13.93,5.03-4.91,8.93-8.93,11.72-12.08,3.3-3.73,6.89-8.33,10.77-13.79,2.18-2.74,3.95-5.67,5.89-8.57,5.18-7.73,9.66-15.91,13.62-24.34,5.86-12.39,10.47-25.26,13.83-38.59,1.64-6.53,2.77-11.2,3.39-14.02.58-2.63,1.02-5.04,1.32-7.22,0-.01,0-.02,0-.04,0-.12-.1-.22-.22-.22-6.15-.09-11.7,1.57-16.63,4.96-3.67,2.52-6.69,5.36-9.06,8.52ZM459.61,278.18s.02-.04.03-.06c0,.02-.02.03-.03.06h0Z"/>
  <path class="cls-1" d="M526.97,274.47c-1.77,5.63-4.64,12.58-8.6,20.83-3.81,7.75-7.98,15.3-12.5,22.64-1.32,2.14-4.14,6.17-8.45,12.09-5.26,7.14-9.77,12.64-13.53,16.5-3.71,3.82-7.3,7.71-11.04,11.12-7.52,6.85-15.16,13.35-22.92,19.48-.11.09-.33.23-.66.44-.02.01-.03.04-.04.06,0,.04.03.08.07.09.33,0,.6,0,.81-.05,4.92-1,11.38-2.95,16.84-4.12,8-1.7,14.91-2.83,24.96-4.39,7.6-1.18,16.58-3.03,22.15-4.39,1.46-.35,4.53-1.26,9.22-2.72.13-.05.28-.08.44-.08,11.47-3.96,21.82-9.27,31.03-15.94,8.08-5.85,15.91-13.11,23.48-21.78.76-.87,1.85-2.21,3.26-4,2.09-2.64,4.44-5.46,6.33-8.44.28-.44.29-1,.04-1.45-.26-.45-.7-.87-1.33-1.28-5.02-3.21-11.75-4.47-17.67-2.87-3.77,1.02-7.16,2.73-10.18,5.13-3.77,2.99-7.64,6.73-11.69,11.12-7.33,7.95-15.33,15.13-24.4,20.83-2.01,1.26-5.03,2.74-9.05,4.42-2.85,1.36-6.61,2.74-9.76,2.84-.06,0-.12-.02-.17-.05-.12-.09-.15-.25-.06-.37l7.07-9.53c2.02-2.43,4.07-4.86,6.17-7.27,9.77-11.24,17.99-23.59,24.65-37.05,4.49-9.07,7.69-18.42,9.61-28.03,1.01-5.07,1.27-10.05.77-14.93-.89-8.71-5.28-17.28-13.94-20.25-.01,0-.02,0-.03,0-.09-.01-.18.06-.19.15-.23,2.04-.53,3.91-.9,5.63-1.02,4.65-2.07,9.29-3.16,13.92-.54,2.27-1.6,5.9-3.19,10.89-1.14,3.58-2.29,7.19-3.43,10.83Z"/>
  <path class="cls-1" d="M185.7,364.66c-2.74-2.23-5.29-4.51-7.67-6.83-4.75-4.64-7.59-9.7-10.6-15.8-2.52-5.11-5.51-12.23-8.08-18.87-1.8-4.64-3.9-9.18-6.32-13.63-2.3-4.23-5.12-7.9-8.48-11-1.79-1.65-3.17-2.74-4.16-3.25-4.75-2.5-9.85-3.6-15.29-3.3-1.11.06-2.02.21-2.73.44-.18.06-.3.24-.29.43.14,2.12.74,4.14,1.22,6.15,5.26,21.79,15.06,42.43,29.73,59.31,3.72,4.28,8.31,8.48,12.5,12.01,6.13,5.17,13.96,10.03,21.22,13.56,2.38,1.15,5.21,2.5,8.52,4.04,1.1.51,2.05.92,2.86,1.23,2.76,1.05,4.86,1.98,7.28,2.76,1.78.58,6.36,2.22,13.75,4.93.1.04.18.03.24,0,0,0,.01,0,.02-.01.07-.06.07-.17,0-.24-1.13-1.18-2.21-2.47-3.23-3.86-6.12-8.38-10.76-17.6-13.94-27.68-3.02-9.58-4.77-19.28-5.42-29.14,0-.02,0-.05-.01-.07-.05-.13-.19-.2-.32-.15-2.7.94-5.13,2.36-7.27,4.26-6.6,5.85-5.39,17.07-3.28,24.55.01.05,0,.1-.03.15-.06.08-.17.09-.24.03Z"/>
</svg>